<?xml version="1.0" ?><!DOCTYPE svg  PUBLIC '-//W3C//DTD SVG 1.1//EN'  'http://www.w3.org/Graphics/SVG/1.1/DTD/svg11.dtd'><svg height="100%" style="fill-rule:evenodd;clip-rule:evenodd;stroke-linejoin:round;stroke-miterlimit:2;" version="1.1" viewBox="0 0 32 32" width="100%" xml:space="preserve" xmlns="http://www.w3.org/2000/svg" xmlns:serif="http://www.serif.com/" xmlns:xlink="http://www.w3.org/1999/xlink"><g transform="matrix(1,0,0,1,-100,-50)"><g id="Icon" transform="matrix(0.5,0,0,0.5,0,0)"><g transform="matrix(0.727862,0,0,0.836683,52.1077,93.3057)"><path d="M214.354,24.37L210.048,24.37C209.056,24.37 208.251,23.669 208.251,22.806L208.251,13.694C208.251,12.831 209.056,12.13 210.048,12.13L223.952,12.13C224.944,12.13 225.749,12.831 225.749,13.694L225.749,22.806C225.749,23.669 224.944,24.37 223.952,24.37L219.646,24.37L217.585,26.611C217.443,26.766 217.228,26.856 217,26.856C216.772,26.856 216.557,26.766 216.415,26.611L214.354,24.37ZM217,25.16L218.701,23.311C218.843,23.156 219.058,23.066 219.286,23.066C219.286,23.066 223.952,23.066 223.952,23.066C224.117,23.066 224.251,22.95 224.251,22.806L224.251,13.694C224.251,13.55 224.117,13.434 223.952,13.434C223.952,13.434 210.048,13.434 210.048,13.434C209.883,13.434 209.749,13.55 209.749,13.694C209.749,13.694 209.749,22.806 209.749,22.806C209.749,22.95 209.883,23.066 210.048,23.066L214.714,23.066C214.942,23.066 215.157,23.156 215.299,23.311L217,25.16Z"/></g><g transform="matrix(-0.727862,0,0,0.836683,411.976,93.3057)"><path d="M219.646,24.37L223.952,24.37C224.944,24.37 225.749,23.669 225.749,22.806L225.749,13.694C225.749,12.831 224.944,12.13 223.952,12.13L210.048,12.13C209.056,12.13 208.251,12.831 208.251,13.694L208.251,22.806C208.251,23.669 209.056,24.37 210.048,24.37L214.354,24.37L216.415,26.611C216.557,26.766 216.772,26.856 217,26.856C217.228,26.856 217.443,26.766 217.585,26.611L219.646,24.37ZM217,25.16L215.299,23.311C215.157,23.156 214.942,23.066 214.714,23.066C214.714,23.066 210.048,23.066 210.048,23.066C209.883,23.066 209.749,22.95 209.749,22.806C209.749,22.806 209.749,13.694 209.749,13.694C209.749,13.55 209.883,13.434 210.048,13.434C210.048,13.434 223.952,13.434 223.952,13.434C224.117,13.434 224.251,13.55 224.251,13.694L224.251,22.806C224.251,22.95 224.117,23.066 223.952,23.066L219.286,23.066C219.058,23.066 218.843,23.156 218.701,23.311L217,25.16Z"/></g><g transform="matrix(2.01399,0,0,2.01399,197.97,-4.33634)"><path d="M4,55.271L8,55.271C8.149,55.271 8.271,55.149 8.271,55C8.271,54.851 8.149,54.729 8,54.729L4,54.729C3.851,54.729 3.729,54.851 3.729,55C3.729,55.149 3.851,55.271 4,55.271Z"/></g><g transform="matrix(-2.01399,0,0,2.01399,266.114,-4.33634)"><path d="M4,54.729L8,54.729C8.149,54.729 8.271,54.851 8.271,55C8.271,55.149 8.149,55.271 8,55.271L4,55.271C3.851,55.271 3.729,55.149 3.729,55C3.729,54.851 3.851,54.729 4,54.729Z"/></g><g transform="matrix(2.01399,0,0,2.01399,197.97,-2.32235)"><path d="M4,55.271L8,55.271C8.149,55.271 8.271,55.149 8.271,55C8.271,54.851 8.149,54.729 8,54.729L4,54.729C3.851,54.729 3.729,54.851 3.729,55C3.729,55.149 3.851,55.271 4,55.271Z"/></g><g transform="matrix(-2.01399,0,0,2.01399,266.114,-2.32235)"><path d="M4,54.729L8,54.729C8.149,54.729 8.271,54.851 8.271,55C8.271,55.149 8.149,55.271 8,55.271L4,55.271C3.851,55.271 3.729,55.149 3.729,55C3.729,54.851 3.851,54.729 4,54.729Z"/></g><g transform="matrix(1.15085,0,0,2.01399,201.422,-0.308362)"><path d="M4,55.271L8,55.271C8.262,55.271 8.474,55.149 8.474,55C8.474,54.851 8.262,54.729 8,54.729L4,54.729C3.738,54.729 3.526,54.851 3.526,55C3.526,55.149 3.738,55.271 4,55.271Z"/></g><g transform="matrix(-1.15085,0,0,2.01399,262.661,-0.308362)"><path d="M4,54.729L8,54.729C8.262,54.729 8.474,54.851 8.474,55C8.474,55.149 8.262,55.271 8,55.271L4,55.271C3.738,55.271 3.526,55.149 3.526,55C3.526,54.851 3.738,54.729 4,54.729Z"/></g><g transform="matrix(2,0,0,2,0,0)"><path d="M121.497,80C121.497,80.151 121.374,80.273 121.224,80.273L110.783,80.273C110.633,80.273 110.511,80.151 110.511,80L110.511,75.222C110.511,75.215 110.511,75.208 110.511,75.202C110.511,75.195 110.511,75.188 110.511,75.181L110.511,72.772C110.511,72.621 110.633,72.499 110.783,72.499L121.224,72.499C121.374,72.499 121.497,72.621 121.497,72.772L121.497,75.181C121.497,75.188 121.496,75.195 121.496,75.202C121.496,75.208 121.497,75.215 121.497,75.222L121.497,80ZM120.951,77.904L111.056,77.904L111.056,79.727L120.951,79.727L120.951,77.904ZM120.951,77.318L120.951,75.495L111.056,75.495L111.056,77.318L120.951,77.318ZM111.056,73.045L111.056,74.909L120.951,74.909L120.951,73.045L111.056,73.045Z"/></g><g transform="matrix(3.28356,0,0,3.28356,-173.409,-57.3787)"><path d="M120.92,55.837C120.864,55.635 120.834,55.422 120.834,55.202C120.834,53.895 121.895,52.834 123.202,52.834C124.509,52.834 125.57,53.895 125.57,55.202C125.57,55.421 125.54,55.633 125.484,55.834L126,55.834C126.644,55.834 127.166,56.356 127.166,57C127.166,57.644 126.644,58.166 126,58.166L121,58.166C120.356,58.166 119.834,57.644 119.834,57C119.834,56.383 120.314,55.878 120.92,55.837ZM121.149,56.166C121.204,56.166 121.256,56.139 121.286,56.094C121.317,56.048 121.324,55.991 121.304,55.94C121.215,55.711 121.166,55.462 121.166,55.202C121.166,54.078 122.078,53.166 123.202,53.166C124.325,53.166 125.238,54.078 125.238,55.202C125.238,55.462 125.189,55.711 125.1,55.94C125.08,55.991 125.086,56.048 125.117,56.094C125.148,56.139 125.2,56.166 125.254,56.166L126,56.166C126.46,56.166 126.834,56.54 126.834,57C126.834,57.46 126.46,57.834 126,57.834C126,57.834 121,57.834 121,57.834C120.54,57.834 120.166,57.46 120.166,57C120.166,56.54 120.54,56.166 121,56.166L121.149,56.166Z"/></g><g transform="matrix(1.7923,0,0,1.7923,9.28202,24.5468)"><path d="M121.304,55.202C121.304,54.155 122.155,53.304 123.202,53.304C123.37,53.304 123.506,53.168 123.506,53C123.506,52.832 123.37,52.696 123.202,52.696C121.819,52.696 120.696,53.819 120.696,55.202C120.696,55.37 120.832,55.506 121,55.506C121.168,55.506 121.304,55.37 121.304,55.202Z"/></g><g transform="matrix(2.01399,0,0,2.01399,-1.5805,1.01216)"><path d="M112.729,67L112.729,68L113.271,68L113.271,67L112.729,67Z"/></g><g transform="matrix(2.01399,0,0,2.01399,10.5034,1.01216)"><path d="M112.729,67L112.729,68L113.271,68L113.271,67L112.729,67Z"/></g><g transform="matrix(2.01399,0,0,2.01399,4.46146,1.01216)"><path d="M112.729,67L112.729,68L113.271,68L113.271,67L112.729,67Z"/></g><g transform="matrix(2.01399,0,0,2.01399,-1.5805,4.89306)"><path d="M112.729,67L112.729,68L113.271,68L113.271,67L112.729,67Z"/></g><g transform="matrix(2.01399,0,0,2.01399,10.5034,4.89306)"><path d="M112.729,67L112.729,68L113.271,68L113.271,67L112.729,67Z"/></g><g transform="matrix(2.01399,0,0,2.01399,4.46146,4.89306)"><path d="M112.729,67L112.729,68L113.271,68L113.271,67L112.729,67Z"/></g><g transform="matrix(2.01399,0,0,2.01399,-3.52627,-2.16722)"><path d="M105.729,60L105.729,61L106.271,61L106.271,60L105.729,60Z"/></g><g transform="matrix(-2.01399,0,0,2.01399,467.853,-2.16722)"><path d="M106.271,60L106.271,61L105.729,61L105.729,60L106.271,60Z"/></g><g transform="matrix(2.01399,0,0,2.01399,-3.52627,1.85268)"><path d="M105.729,60L105.729,61L106.271,61L106.271,60L105.729,60Z"/></g><g transform="matrix(-2.01399,0,0,2.01399,467.853,1.85268)"><path d="M106.271,60L106.271,61L105.729,61L105.729,60L106.271,60Z"/></g><g transform="matrix(2.01399,0,0,2.01399,-3.52627,5.88873)"><path d="M105.729,60L105.729,61L106.271,61L106.271,60L105.729,60Z"/></g><g transform="matrix(-2.01399,0,0,2.01399,467.853,5.88873)"><path d="M106.271,60L106.271,61L105.729,61L105.729,60L106.271,60Z"/></g><g transform="matrix(1.23321e-16,2.01399,-2.01399,1.23321e-16,334.823,-84.7407)"><path d="M105.729,60L105.729,61L106.271,61L106.271,60L105.729,60Z"/></g><g transform="matrix(-1.23321e-16,2.01399,2.01399,1.23321e-16,129.503,-84.7407)"><path d="M106.271,60L106.271,61L105.729,61L105.729,60L106.271,60Z"/></g><g transform="matrix(1.23321e-16,2.01399,-2.01399,1.23321e-16,338.851,-84.7407)"><path d="M105.729,60L105.729,61L106.271,61L106.271,60L105.729,60Z"/></g><g transform="matrix(-1.23321e-16,2.01399,2.01399,1.23321e-16,125.475,-84.7407)"><path d="M106.271,60L106.271,61L105.729,61L105.729,60L106.271,60Z"/></g><g transform="matrix(2.01399,0,0,2.01399,-1.61525,-1.08174)"><path d="M112,74.271L113,74.271C113.149,74.271 113.271,74.149 113.271,74C113.271,73.851 113.149,73.729 113,73.729L112,73.729C111.851,73.729 111.729,73.851 111.729,74C111.729,74.149 111.851,74.271 112,74.271Z"/></g><g transform="matrix(2.01399,0,0,2.01399,-1.61525,3.81802)"><path d="M112,74.271L113,74.271C113.149,74.271 113.271,74.149 113.271,74C113.271,73.851 113.149,73.729 113,73.729L112,73.729C111.851,73.729 111.729,73.851 111.729,74C111.729,74.149 111.851,74.271 112,74.271Z"/></g><g transform="matrix(2.01399,0,0,2.01399,-1.61525,8.55564)"><path d="M112,74.271L113,74.271C113.149,74.271 113.271,74.149 113.271,74C113.271,73.851 113.149,73.729 113,73.729L112,73.729C111.851,73.729 111.729,73.851 111.729,74C111.729,74.149 111.851,74.271 112,74.271Z"/></g><g transform="matrix(2.01399,0,0,2.01399,2.41273,-1.08174)"><path d="M112,74.271L113,74.271C113.149,74.271 113.271,74.149 113.271,74C113.271,73.851 113.149,73.729 113,73.729L112,73.729C111.851,73.729 111.729,73.851 111.729,74C111.729,74.149 111.851,74.271 112,74.271Z"/></g><g transform="matrix(2.01399,0,0,2.01399,2.41273,3.81802)"><path d="M112,74.271L113,74.271C113.149,74.271 113.271,74.149 113.271,74C113.271,73.851 113.149,73.729 113,73.729L112,73.729C111.851,73.729 111.729,73.851 111.729,74C111.729,74.149 111.851,74.271 112,74.271Z"/></g><g transform="matrix(2.01399,0,0,2.01399,2.41273,8.55564)"><path d="M112,74.271L113,74.271C113.149,74.271 113.271,74.149 113.271,74C113.271,73.851 113.149,73.729 113,73.729L112,73.729C111.851,73.729 111.729,73.851 111.729,74C111.729,74.149 111.851,74.271 112,74.271Z"/></g></g></g></svg>