<svg height="512" viewBox="0 0 256 256" width="512" xmlns="http://www.w3.org/2000/svg"><g id="Layer_1"><g><path d="m248 31.248v149.173c0 5.91-4.79 10.69-10.69 10.69h-218.62c-5.9 0-10.69-4.78-10.69-10.69v-149.173c0-5.91 4.79-10.69 10.69-10.69h218.62c5.9 0 10.69 4.78 10.69 10.69z" fill="#afafaf"/><path d="m24 170.111v-128.553c0-2.761 2.239-5 5-5h198c2.761 0 5 2.239 5 5v128.553c0 2.761-2.239 5-5 5h-198c-2.761 0-5-2.238-5-5z" fill="#f0c020"/><path d="m224 169.611h-177.447c-1.381 0-2.5-1.119-2.5-2.5s1.119-2.5 2.5-2.5h174.947v-120.053c0-1.381 1.119-2.5 2.5-2.5s2.5 1.119 2.5 2.5v122.553c0 1.381-1.119 2.5-2.5 2.5zm-187.447 0h-4.553c-1.381 0-2.5-1.119-2.5-2.5s1.119-2.5 2.5-2.5h4.553c1.381 0 2.5 1.119 2.5 2.5s-1.119 2.5-2.5 2.5z" fill="#f8e5b0"/><path d="m152 220.872h-48l3.228-20.398 1.487-9.361h38.57l1.487 9.361z" fill="#afafaf"/><path d="m148.772 200.474h-41.544l1.487-9.361h38.57z" fill="#878787"/><path d="m175.48 228.349v7.266h-94.96v-7.266c0-4.125 3.345-7.48 7.48-7.48h80c4.135 0 7.48 3.355 7.48 7.48z" fill="#afafaf"/><g><path d="m237.31 18.056h-185.991c-1.369 0-2.489 1.12-2.489 2.5s1.12 2.5 2.489 2.5h185.99c4.5.01 8.181 3.68 8.19 8.19v149.17c-.01 4.51-3.69 8.19-8.19 8.2h-34.029c-1.381 0-2.5 1.12-2.5 2.5 0 1.37 1.119 2.49 2.5 2.49h34.029c7.271 0 13.19-5.91 13.19-13.19v-149.17c.001-7.27-5.919-13.19-13.189-13.19z"/><path d="m193.28 188.616c-1.381 0-2.5 1.12-2.5 2.5 0 1.37 1.119 2.49 2.5 2.49 1.38 0 2.5-1.12 2.5-2.49 0-1.38-1.12-2.5-2.5-2.5z"/><path d="m183.28 188.616c-4.387 0-160.557 0-164.591 0-4.51-.01-8.18-3.69-8.189-8.2v-149.17c.01-4.51 3.68-8.18 8.189-8.19h12.641c1.37 0 2.489-1.12 2.489-2.5s-1.119-2.5-2.489-2.5h-12.641c-7.27 0-13.189 5.92-13.189 13.19v149.17c0 7.28 5.92 13.19 13.189 13.19h87.095l-3.92 24.76h-13.864c-5.5 0-9.98 4.48-9.98 9.98v7.27c0 1.372 1.117 2.5 2.5 2.5h94.96c1.411 0 2.5-1.141 2.5-2.5v-7.27c0-5.5-4.479-9.98-9.979-9.98h-13.865l-3.927-24.76h33.072c1.38 0 2.5-1.12 2.5-2.49-.001-1.38-1.121-2.5-2.501-2.5zm-72.43 5h34.3l3.918 24.75h-42.136zm57.15 29.75c2.74.01 4.97 2.24 4.979 4.98v4.77h-89.959v-4.77c0-2.74 2.24-4.97 4.98-4.98z"/><path d="m41.33 23.056c1.37 0 2.489-1.12 2.489-2.5s-1.119-2.5-2.489-2.5c-1.38 0-2.5 1.12-2.5 2.5 0 1.381 1.12 2.5 2.5 2.5z"/><path d="m48 79.058c5.79 0 10.5-4.71 10.5-10.5v-8c0-5.79-4.71-10.5-10.5-10.5s-10.5 4.71-10.5 10.5v8c0 5.79 4.71 10.5 10.5 10.5zm-5.5-18.5c0-3.033 2.468-5.5 5.5-5.5s5.5 2.467 5.5 5.5v8c0 3.033-2.468 5.5-5.5 5.5s-5.5-2.467-5.5-5.5z"/><path d="m74.5 52.558c0-1.381-1.119-2.5-2.5-2.5s-2.5 1.119-2.5 2.5v24c0 1.381 1.119 2.5 2.5 2.5s2.5-1.119 2.5-2.5z"/><path d="m96 79.058c5.79 0 10.5-4.71 10.5-10.5v-8c0-5.79-4.71-10.5-10.5-10.5s-10.5 4.71-10.5 10.5v8c0 5.79 4.71 10.5 10.5 10.5zm-5.5-18.5c0-3.033 2.468-5.5 5.5-5.5s5.5 2.467 5.5 5.5v8c0 3.033-2.468 5.5-5.5 5.5s-5.5-2.467-5.5-5.5z"/><path d="m122.5 52.558c0-1.381-1.119-2.5-2.5-2.5s-2.5 1.119-2.5 2.5v24c0 1.381 1.119 2.5 2.5 2.5s2.5-1.119 2.5-2.5z"/><path d="m144 79.058c5.79 0 10.5-4.71 10.5-10.5v-8c0-5.79-4.71-10.5-10.5-10.5s-10.5 4.71-10.5 10.5v8c0 5.79 4.71 10.5 10.5 10.5zm-5.5-18.5c0-3.033 2.468-5.5 5.5-5.5s5.5 2.467 5.5 5.5v8c0 3.033-2.468 5.5-5.5 5.5s-5.5-2.467-5.5-5.5z"/><path d="m170.5 52.558c0-1.381-1.119-2.5-2.5-2.5s-2.5 1.119-2.5 2.5v24c0 1.381 1.119 2.5 2.5 2.5s2.5-1.119 2.5-2.5z"/><path d="m181.5 60.558v8c0 5.79 4.71 10.5 10.5 10.5s10.5-4.71 10.5-10.5v-8c0-5.79-4.71-10.5-10.5-10.5s-10.5 4.711-10.5 10.5zm5 0c0-3.033 2.468-5.5 5.5-5.5s5.5 2.467 5.5 5.5v8c0 3.033-2.468 5.5-5.5 5.5s-5.5-2.467-5.5-5.5z"/><path d="m218.5 76.558v-24c0-1.381-1.119-2.5-2.5-2.5s-2.5 1.119-2.5 2.5v24c0 1.381 1.119 2.5 2.5 2.5s2.5-1.119 2.5-2.5z"/><path d="m37.5 148.558c0 5.79 4.71 10.5 10.5 10.5s10.5-4.71 10.5-10.5v-8c0-5.79-4.71-10.5-10.5-10.5s-10.5 4.71-10.5 10.5zm5-8c0-3.033 2.468-5.5 5.5-5.5s5.5 2.467 5.5 5.5v8c0 3.033-2.468 5.5-5.5 5.5s-5.5-2.467-5.5-5.5z"/><path d="m69.5 132.558v24c0 1.381 1.119 2.5 2.5 2.5s2.5-1.119 2.5-2.5v-24c0-1.381-1.119-2.5-2.5-2.5s-2.5 1.119-2.5 2.5z"/><path d="m85.5 148.558c0 5.79 4.71 10.5 10.5 10.5s10.5-4.71 10.5-10.5v-8c0-5.79-4.71-10.5-10.5-10.5s-10.5 4.71-10.5 10.5zm5-8c0-3.033 2.468-5.5 5.5-5.5s5.5 2.467 5.5 5.5v8c0 3.033-2.468 5.5-5.5 5.5s-5.5-2.467-5.5-5.5z"/><path d="m117.5 132.558v24c0 1.381 1.119 2.5 2.5 2.5s2.5-1.119 2.5-2.5v-24c0-1.381-1.119-2.5-2.5-2.5s-2.5 1.119-2.5 2.5z"/><path d="m133.5 148.558c0 5.79 4.71 10.5 10.5 10.5s10.5-4.71 10.5-10.5v-8c0-5.79-4.71-10.5-10.5-10.5s-10.5 4.71-10.5 10.5zm5-8c0-3.033 2.468-5.5 5.5-5.5s5.5 2.467 5.5 5.5v8c0 3.033-2.468 5.5-5.5 5.5s-5.5-2.467-5.5-5.5z"/><path d="m165.5 132.558v24c0 1.381 1.119 2.5 2.5 2.5s2.5-1.119 2.5-2.5v-24c0-1.381-1.119-2.5-2.5-2.5s-2.5 1.119-2.5 2.5z"/><path d="m181.5 148.558c0 5.79 4.71 10.5 10.5 10.5s10.5-4.71 10.5-10.5v-8c0-5.79-4.71-10.5-10.5-10.5s-10.5 4.71-10.5 10.5zm5-8c0-3.033 2.468-5.5 5.5-5.5s5.5 2.467 5.5 5.5v8c0 3.033-2.468 5.5-5.5 5.5s-5.5-2.467-5.5-5.5z"/><path d="m213.5 132.558v24c0 1.381 1.119 2.5 2.5 2.5s2.5-1.119 2.5-2.5v-24c0-1.381-1.119-2.5-2.5-2.5s-2.5 1.119-2.5 2.5z"/><path d="m37.5 116.558c0 1.381 1.119 2.5 2.5 2.5s2.5-1.119 2.5-2.5v-24c0-1.381-1.119-2.5-2.5-2.5s-2.5 1.119-2.5 2.5z"/><path d="m74.5 100.558c0-5.79-4.71-10.5-10.5-10.5s-10.5 4.71-10.5 10.5v8c0 5.79 4.71 10.5 10.5 10.5s10.5-4.71 10.5-10.5zm-5 8c0 3.033-2.468 5.5-5.5 5.5s-5.5-2.467-5.5-5.5v-8c0-3.033 2.468-5.5 5.5-5.5s5.5 2.467 5.5 5.5z"/><path d="m85.5 116.558c0 1.381 1.119 2.5 2.5 2.5s2.5-1.119 2.5-2.5v-24c0-1.381-1.119-2.5-2.5-2.5s-2.5 1.119-2.5 2.5z"/><path d="m122.5 100.558c0-5.79-4.71-10.5-10.5-10.5s-10.5 4.71-10.5 10.5v8c0 5.79 4.71 10.5 10.5 10.5s10.5-4.71 10.5-10.5zm-5 8c0 3.033-2.468 5.5-5.5 5.5s-5.5-2.467-5.5-5.5v-8c0-3.033 2.468-5.5 5.5-5.5s5.5 2.467 5.5 5.5z"/><path d="m133.5 116.558c0 1.381 1.119 2.5 2.5 2.5s2.5-1.119 2.5-2.5v-24c0-1.381-1.119-2.5-2.5-2.5s-2.5 1.119-2.5 2.5z"/><path d="m170.5 100.558c0-5.79-4.71-10.5-10.5-10.5s-10.5 4.71-10.5 10.5v8c0 5.79 4.71 10.5 10.5 10.5s10.5-4.71 10.5-10.5zm-5 8c0 3.033-2.468 5.5-5.5 5.5s-5.5-2.467-5.5-5.5v-8c0-3.033 2.468-5.5 5.5-5.5s5.5 2.467 5.5 5.5z"/><path d="m197.5 100.558v8c0 5.79 4.71 10.5 10.5 10.5s10.5-4.71 10.5-10.5v-8c0-5.79-4.71-10.5-10.5-10.5s-10.5 4.711-10.5 10.5zm16 0v8c0 3.033-2.468 5.5-5.5 5.5s-5.5-2.467-5.5-5.5v-8c0-3.033 2.468-5.5 5.5-5.5s5.5 2.467 5.5 5.5z"/><path d="m186.5 116.558v-24c0-1.381-1.119-2.5-2.5-2.5s-2.5 1.119-2.5 2.5v24c0 1.381 1.119 2.5 2.5 2.5s2.5-1.119 2.5-2.5z"/><path d="m182.59 34.056h-153.59c-4.141 0-7.5 3.37-7.5 7.5v128.56c0 4.13 3.359 7.49 7.5 7.49h198c4.13 0 7.5-3.36 7.5-7.49 0-15.629 0-112.672 0-128.56 0-4.13-3.37-7.5-7.5-7.5h-24.41c-1.38 0-2.5 1.12-2.5 2.5s1.12 2.5 2.5 2.5h24.41c1.38 0 2.5 1.13 2.5 2.5v128.56c0 1.37-1.12 2.49-2.5 2.5h-198c-1.38-.01-2.5-1.13-2.5-2.5v-128.56c0-1.37 1.12-2.5 2.5-2.5h153.59c1.38 0 2.5-1.12 2.5-2.5s-1.12-2.5-2.5-2.5z"/><circle cx="192.59" cy="36.556" r="2.5"/></g></g></g></svg>