<svg id="filled_outline" height="512" viewBox="0 0 512 512" width="512" xmlns="http://www.w3.org/2000/svg" data-name="filled outline"><path d="m312 327.99-28.68994 28.68994a38.65 38.65 0 0 1 -54.63007 0l-28.67999-28.68994v80h-112v-80l-24 64v48.01h-40v-45.60986a55.91793 55.91793 0 0 1 3.73-20.10014l28.38-73.78a31.992 31.992 0 0 1 29.86-20.52h115.04a31.98115 31.98115 0 0 1 24.58 11.52l30.41 36.48 32-24z" fill="#ed6445"/><path d="m159.9965 247.99457v16a16 16 0 0 1 -16 16 16 16 0 0 1 -16-16v-16l8.0035-15.99457h24z" fill="#ffceb6"/><path d="m63.99652 439.99457 14.34314 14.34314a5.65685 5.65685 0 0 1 1.65686 4 5.65685 5.65685 0 0 1 -5.65685 5.65685h-10.34315v24h-24a16 16 0 0 1 -16-16v-31.99456z" fill="#ffceb6"/><path d="m151.997 311.995 8 56-16 16-16-16 8-56z" fill="#f7c04a"/><path d="m288 303.98934 12.90252-19.35377a10.42219 10.42219 0 0 1 8.67179-4.641 10.42219 10.42219 0 0 1 10.4222 10.42219v5.57781h22.45935a9.54065 9.54065 0 0 1 9.54065 9.54064 9.54065 9.54065 0 0 1 -5.99734 8.85827l-34.00266 13.60107z" fill="#ffceb6"/><path d="m87.997 495.995v-87.995h112v87.995h-48v-40l-24 40z" fill="#445496"/><path d="m312 56h144v176h-144z" fill="#56679c"/><g fill="#f7c04a"><path d="m336 24h96v32h-96z"/><path d="m336 232h96v32h-96z"/><path d="m280 80h32v128h-32z"/><path d="m456 80h32v128h-32z"/></g><path d="m352 96h64v96h-64z" fill="#445496"/><path d="m128 256-5.95016-11.90031a19.41651 19.41651 0 0 1 -2.04984-8.68328 19.41638 19.41638 0 0 1 19.41639-19.41641h36.58361v9.37262a22.62741 22.62741 0 0 1 -22.62741 22.62738 22.6274 22.6274 0 0 1 -16-6.62741l-1.37259-1.37259z" fill="#b36f42"/><path d="m39.99658 495.99414h24a8.00008 8.00008 0 0 0 8-8v-16h2.34326a13.57521 13.57521 0 0 0 5.65674-1.22754v25.22754h16v-80h96v80h16v-148.68652l15.0293 15.03027a46.62863 46.62863 0 0 0 65.94092 0l27.52539-27.52539 32.47851-12.99121a17.541 17.541 0 0 0 -6.51465-33.82715h-14.61816a18.42282 18.42282 0 0 0 -33.5918-7.7959l-12.1455 18.21776-24.82373 18.61816-25.53956-30.64646a39.89239 39.89239 0 0 0 -30.729-14.39356h-34.38788a23.88535 23.88535 0 0 0 1.37616-8v-11.71753a30.65215 30.65215 0 0 0 16.00342-26.90356v-9.37305a8.00008 8.00008 0 0 0 -8-8h-36.5835a27.41651 27.41651 0 0 0 -24.522 39.67773l5.102 10.20411v6.1123a23.88535 23.88535 0 0 0 1.37616 8h-35.39854a40.24 40.24 0 0 0 -37.334 25.64063l-28.37791 73.78323a63.7574 63.7574 0 0 0 -4.26563 22.97461v77.60156a24.02719 24.02719 0 0 0 24 23.99997zm24-40a8.00008 8.00008 0 0 0 -8 8v16h-16a8.00917 8.00917 0 0 1 -8-8v-23.99414h28.6919l7.99414 7.99414zm16-11.31348-8-8v-43.23535l8-21.334zm229.57764-156.68652a2.42521 2.42521 0 0 1 2.42236 2.42285v5.57715a8.00008 8.00008 0 0 0 8 8h22.45947a1.54092 1.54092 0 0 1 .57178 2.97168l-29.10425 11.64136-15.63258-15.63257 9.26757-13.90137a2.41809 2.41809 0 0 1 2.01565-1.0791zm-158.06299 77.17186-7.51465 7.51464-7.51465-7.51464 6.45295-45.17188h2.12341zm-4.459-61.17188h-6.11133l-3.21027-6.42041 6.26593-6.26611 6.26593 6.26611zm-7.63573-79.99412h28.5835v1.37305a14.62759 14.62759 0 0 1 -24.96973 10.34375l-1.37256-1.37305a8.00074 8.00074 0 0 0 -12.813 2.07813l-.62012 1.24023a11.40936 11.40936 0 0 1 11.19191-13.66211zm-3.41992 39.99414v-6.09863l2.78809-5.57617a30.4022 30.4022 0 0 0 13.21191 3.63818v8.03662a8 8 0 0 1 -16 0zm-100.80078 113.16797 28.37793-73.7832a24.14406 24.14406 0 0 1 22.40039-15.38477h38.7085l-18.34278 18.34277 11.31348 11.31446 8.15167-8.15186 1.91864 3.8374-7.64648 53.52539a8.00025 8.00025 0 0 0 2.26269 6.78907l16 16a8.00063 8.00063 0 0 0 11.31348 0l16-16a8.00029 8.00029 0 0 0 2.2627-6.78907l-7.64649-53.52539 1.91864-3.8374 8.15167 8.15186 11.31348-11.31446-18.34277-18.34277h37.69775a23.93824 23.93824 0 0 1 18.438 8.63574l30.4043 36.48535a8.00148 8.00148 0 0 0 10.9458 1.2793l26.44946-19.83716 13.43677 13.43677-23.02979 23.03027a30.628 30.628 0 0 1 -43.31347-.001l-28.686-28.68653a8.00038 8.00038 0 0 0 -13.65674 5.65723v72h-96v-72a7.99988 7.99988 0 0 0 -15.49072-2.80859l-24 64a7.99415 7.99415 0 0 0 -.50928 2.80859v40.00589h-24v-37.60742a47.81382 47.81382 0 0 1 3.19917-17.23047z"/><path d="m159.99658 495.99414v-40a8 8 0 0 0 -14.85986-4.11621l-24 40 13.71973 8.23242 9.14013-15.2334v11.11719z"/><path d="m488 72h-24v-16a8.00008 8.00008 0 0 0 -8-8h-16v-24a8.00008 8.00008 0 0 0 -8-8h-96a8.00008 8.00008 0 0 0 -8 8v24h-16a8.00008 8.00008 0 0 0 -8 8v16h-24a8.00008 8.00008 0 0 0 -8 8v128a8.00008 8.00008 0 0 0 8 8h24v16a8.00008 8.00008 0 0 0 8 8h16v24a8.00008 8.00008 0 0 0 8 8h96a8.00008 8.00008 0 0 0 8-8v-24h16a8.00008 8.00008 0 0 0 8-8v-16h24a8.00008 8.00008 0 0 0 8-8v-128a8.00008 8.00008 0 0 0 -8-8zm-184 16v16h-16v-16zm-16 48v-16h16v16zm16 16v16h-16v-16zm-16 48v-16h16v16zm136-152h-16v-16h16zm-48 0v-16h16v16zm-32-16h16v16h-16zm0 208h16v16h-16zm48 0v16h-16v-16zm32 16h-16v-16h16zm24-32h-128v-160h128zm32-136v16h-16v-16zm-16 48v-16h16v16zm16 16v16h-16v-16zm-16 48v-16h16v16z"/><path d="m352 200h64a8.00008 8.00008 0 0 0 8-8v-96a8.00008 8.00008 0 0 0 -8-8h-64a8.00008 8.00008 0 0 0 -8 8v24h16v-16h48v80h-48v-48h-16v56a8.00008 8.00008 0 0 0 8 8z"/></svg>