<svg id="Capa_1" enable-background="new 0 0 512 512" height="512" viewBox="0 0 512 512" width="512" xmlns="http://www.w3.org/2000/svg"><g><path clip-rule="evenodd" d="m196.585 88.995h290.413c13.748 0 25.002 11.253 25.002 25.002v162.994l-168.806 8.504-171.611-8.504v-162.994c0-13.749 11.254-25.002 25.002-25.002z" fill="#bed8fb" fill-rule="evenodd"/><path clip-rule="evenodd" d="m461.995 88.995h25.003c13.748 0 25.002 11.253 25.002 25.002v162.994h-25.002v-162.994c0-13.749-11.225-25.002-25.003-25.002z" fill="#9dc6fb" fill-rule="evenodd"/><path clip-rule="evenodd" d="m318.59 337.001 26.334-3.373 29.65 3.373 14.996 56.013-42.124 5.499-43.88-5.499z" fill="#365e7d" fill-rule="evenodd"/><path clip-rule="evenodd" d="m512 276.991v35.008c0 13.749-11.254 25.002-25.002 25.002h-290.413c-13.749 0-25.002-11.253-25.002-25.002v-35.008z" fill="#407093" fill-rule="evenodd"/><path clip-rule="evenodd" d="m512 276.991v35.008c0 13.749-11.254 25.002-25.002 25.002h-25.003c13.778 0 25.003-11.253 25.003-25.002v-35.008z" fill="#365e7d" fill-rule="evenodd"/><path clip-rule="evenodd" d="m349.572 337.001h25.002l14.996 56.013h-25.002z" fill="#2b4d66" fill-rule="evenodd"/><path clip-rule="evenodd" d="m275.588 393.014h141.989c8.248 0 14.995 6.746 14.995 14.996 0 8.249-6.747 14.995-14.995 14.995h-141.989c-8.249 0-15.023-6.746-15.023-14.995 0-8.25 6.774-14.996 15.023-14.996z" fill="#407093" fill-rule="evenodd"/><path d="m97.91 359.395c2.154 3.544.992 8.136-2.551 10.262-3.544 2.154-8.136.992-10.262-2.551l-66.729-110.95c-1.757-2.948-1.275-6.604.935-8.986l65.424-80.193c2.58-3.203 7.313-3.685 10.517-1.105 3.203 2.608 3.686 7.313 1.077 10.517l-62.42 76.536z" fill="#365e7d"/><path clip-rule="evenodd" d="m86.004 354.009c26.731 0 49.748 16.016 59.925 39.005l-58.763 5.726-61.087-5.726c10.177-22.989 33.194-39.005 59.925-39.005z" fill="#ebe8fa" fill-rule="evenodd"/><path clip-rule="evenodd" d="m86.004 354.009c26.731 0 49.748 16.016 59.925 39.005h-25.002c-8.56-19.304-26.164-33.705-47.424-37.815 4.054-.793 8.221-1.19 12.501-1.19z" fill="#dddaec" fill-rule="evenodd"/><path clip-rule="evenodd" d="m14.996 393.014h142.018c8.249 0 14.996 6.746 14.996 14.996 0 8.249-6.747 14.995-14.996 14.995h-142.018c-8.249 0-14.996-6.746-14.996-14.995 0-8.25 6.747-14.996 14.996-14.996z" fill="#80b4fb" fill-rule="evenodd"/><path clip-rule="evenodd" d="m132.011 393.014h25.002c8.249 0 14.996 6.746 14.996 14.996 0 8.249-6.747 14.995-14.996 14.995h-25.002c8.249 0 14.995-6.746 14.995-14.995 0-8.25-6.746-14.996-14.995-14.996z" fill="#61a2f9" fill-rule="evenodd"/><path clip-rule="evenodd" d="m392.575 393.014h25.002c8.248 0 14.995 6.746 14.995 14.996 0 8.249-6.747 14.995-14.995 14.995h-25.002c8.249 0 14.995-6.746 14.995-14.995 0-8.25-6.746-14.996-14.995-14.996z" fill="#365e7d" fill-rule="evenodd"/><path d="m329.05 314.494c-4.139 0-7.512-3.345-7.512-7.483 0-4.139 3.373-7.512 7.512-7.512h25.483c4.139 0 7.512 3.374 7.512 7.512s-3.373 7.483-7.512 7.483z" fill="#b3e59f"/><g clip-rule="evenodd" fill-rule="evenodd"><path d="m193.581 185.232c6.038 6.066 9.808 14.457 9.808 23.698 0 18.51-14.996 33.506-33.506 33.506-9.241 0-17.632-3.742-23.699-9.809l19.673-27.667z" fill="#ffe07d"/><path d="m193.581 185.232c6.038 6.066 9.808 14.457 9.808 23.698 0 18.51-14.996 33.506-33.506 33.506-4.422 0-8.646-.851-12.501-2.41 12.302-4.96 21.005-17.008 21.005-31.097 0-2.636-.312-5.188-.879-7.625z" fill="#ffd064"/><path d="m86.26 176.927 21.175-31.153 30.444-20.466 65.113 39.516c4.564 2.778 4.677 6.321 1.19 9.808l-68.6 68.6c-3.628 3.628-7.285 2.948-9.808-1.19z" fill="#80b4fb"/><path d="m128.439 134.747 9.439-9.439 65.113 39.516c4.564 2.778 4.677 6.321 1.19 9.808l-68.6 68.6c-3.628 3.628-7.285 2.948-9.808-1.19l-5.301-8.703 58.706-58.706c3.487-3.486 3.373-7.03-1.191-9.808z" fill="#61a2f9"/><path d="m86.26 125.307c14.258-14.258 37.361-14.258 51.619 0l-51.619 51.62c-14.259-14.258-14.259-37.362 0-51.62z" fill="#ebe8fa"/><path d="m99.582 116.831c12.898-4.705 27.951-1.871 38.297 8.476l-51.619 51.62c-4.536-4.536-7.626-9.95-9.27-15.704l35.887-35.916c-3.883-3.883-8.447-6.718-13.295-8.476z" fill="#dddaec"/><path d="m24.775 277.076c13.663 0 24.803-11.141 24.803-24.804 0-13.635-11.14-24.775-24.803-24.775-13.634 0-24.775 11.141-24.775 24.776 0 13.662 11.141 24.803 24.775 24.803z" fill="#ebe8fa"/><path d="m24.775 227.497c13.691 0 24.803 11.112 24.803 24.775 0 13.691-11.112 24.804-24.803 24.804-4.536 0-8.816-1.248-12.501-3.374 7.37-4.309 12.303-12.302 12.303-21.43s-4.933-17.093-12.303-21.402c3.686-2.125 7.966-3.373 12.501-3.373z" fill="#dddaec"/><path d="m251.521 128.255h180.569c4.394 0 7.994 3.6 7.994 7.994v28.007c0 4.393-3.601 7.994-7.994 7.994h-180.569c-4.422 0-8.023-3.6-8.023-7.994v-28.007c.001-4.394 3.601-7.994 8.023-7.994z" fill="#e27f84"/><path d="m407.089 128.255h25.001c4.394 0 7.994 3.6 7.994 7.994v28.007c0 4.393-3.601 7.994-7.994 7.994h-25.001c4.393 0 7.993-3.6 7.993-7.994v-28.007c0-4.394-3.6-7.994-7.993-7.994z" fill="#c9646d"/></g><path d="m251.011 209.752c-4.138 0-7.512-3.373-7.512-7.512s3.374-7.483 7.512-7.483h181.562c4.139 0 7.512 3.345 7.512 7.483s-3.373 7.512-7.512 7.512zm0 29.991c-4.138 0-7.512-3.345-7.512-7.484 0-4.167 3.374-7.512 7.512-7.512h146.582c4.139 0 7.512 3.345 7.512 7.512 0 4.139-3.373 7.484-7.512 7.484z" fill="#365e7d"/></g></svg>