<svg id="flat" height="512" viewBox="0 0 512 512" width="512" xmlns="http://www.w3.org/2000/svg"><path d="m352 352 17.71656 7.08662a56 56 0 0 1 31.19682 31.19682l7.08662 17.71656v80h-144v-80l7.08662-17.71656a56 56 0 0 1 31.19682-31.19682l17.71656-7.08662z" fill="#517ef7"/><path d="m328 352h16v56h-16z" fill="#486be0"/><path d="m360 320v24a24 24 0 0 1 -24 24 24 24 0 0 1 -24-24v-24z" fill="#f5c99d"/><path d="m312 320h48v-13.57781a18.42218 18.42218 0 0 0 -18.42219-18.42219 18.42223 18.42223 0 0 0 -10.21879 3.094l-19.35902 12.906z" fill="#b1792c"/><path d="m192 440h24v48h-24z" fill="#f5c99d"/><path d="m296 440h24v48h-24z" fill="#f5c99d"/><path d="m272 384 17.71656 7.08662a56 56 0 0 1 31.19682 31.19682l7.08662 17.71656-32 16v32h-80v-32l-32-16 7.08662-17.71656a56 56 0 0 1 31.19682-31.19682l17.71656-7.08662z" fill="#548aff"/><path d="m248 384h16v64h-16z" fill="#486be0"/><path d="m280 352v24a24 24 0 0 1 -24 24 24 24 0 0 1 -24-24v-24z" fill="#f5c99d"/><path d="m232 352h48v-13.57781a18.42218 18.42218 0 0 0 -18.42219-18.42219 18.42223 18.42223 0 0 0 -10.21879 3.094l-19.35902 12.906z" fill="#b1792c"/><path d="m352 440h24v48h-24z" fill="#f5c99d"/><path d="m456 440h24v48h-24z" fill="#f5c99d"/><path d="m432 384 17.71656 7.08662a56 56 0 0 1 31.19682 31.19682l7.08662 17.71656-32 16v32h-80v-32l-32-16 7.08662-17.71656a56 56 0 0 1 31.19682-31.19682l17.71656-7.08662z" fill="#548aff"/><path d="m234.51 200 24 24v32l-48 40 8 24 80-48v-64l-40-32h-24z" fill="#f6bb00"/><path d="m255.931 314.57864-33.9411 33.94113a16 16 0 0 1 -22.62742 0l-5.65685-5.65686 45.25483-45.25483z" fill="#f5c99d"/><path d="m165.42136 224.069-33.94113 33.9411a16 16 0 0 0 0 22.62742l5.65686 5.65685 45.25483-45.25483z" fill="#f5c99d"/><path d="m261.58788 241.03954 7.5165 17.5385a56 56 0 0 1 0 44.119l-7.5165 17.5385-33.94113-11.31371-16.97056 16.97056-56.56854-56.56854 16.97056-16.97056-11.31371-33.94117 17.5385-7.5165a56 56 0 0 1 44.119 0l17.5385 7.5165z" fill="#517ef7"/><path d="m195.647 244.353h64v16h-64z" fill="#486be0" transform="matrix(.707 -.707 .707 .707 -111.765 234.883)"/><path d="m24 365.49033 16.97056-16.97056a8 8 0 0 1 11.31371 0l79.196 79.196a8 8 0 0 1 0 11.31371l-16.9706 16.97052z" fill="#f6bb00"/><path d="m210.676 325.892-90.509 90.51-16.971-16.971 50.912-73.539-73.539 50.912-16.971-16.971 90.51-90.509z" fill="#4d6378"/><path d="m289.87215 224.069-16.97058 16.97058a24 24 0 0 1 -33.94109 0 24 24 0 0 1 0-33.94109l16.97052-16.97064z" fill="#f5c99d"/><path d="m255.931 190.12785 33.94115 33.94115 9.601-9.601a18.42216 18.42216 0 0 0 0-26.0529 18.42225 18.42225 0 0 0 -9.41357-5.038l-22.8148-4.563z" fill="#b1792c"/><path d="m154.51 144 16-32h48l16 32z" fill="#f6bb00"/><path d="m178.51 24h32v88h-32z" fill="#eda600"/><path d="m408 384h16v64h-16z" fill="#486be0"/><path d="m154.51 200-32 24v32l56 40-8 24-80-48v-64l40-32h24z" fill="#f6bb00"/><path d="m266.51 144v40l-32 32h-80l-32-32v-40z" fill="#fcd453"/><path d="m440 352v24a24 24 0 0 1 -24 24 24 24 0 0 1 -24-24v-24z" fill="#f5c99d"/><path d="m392 352h48v-13.57781a18.42218 18.42218 0 0 0 -18.42219-18.42219 18.42223 18.42223 0 0 0 -10.21879 3.094l-19.35902 12.906z" fill="#b1792c"/></svg>