<svg id="Capa_1" enable-background="new 0 0 510.5 510.5" height="512" viewBox="0 0 510.5 510.5" width="512" xmlns="http://www.w3.org/2000/svg"><g><g><path d="m503 72.412v225.68l-24.598 7.498h-427.404l-43.498-7.498v-225.68c0-16.56 13.43-30 30-30h435.5c16.57 0 30 13.44 30 30z" fill="#8ac9fe"/><path d="m67.5 42.412c-16.57 0-30 13.44-30 30v225.68l-6.757 5.782h-17.021l-6.222-5.782v-225.68c0-16.56 13.43-30 30-30z" fill="#60b7ff"/><path d="m207.003 313.089h96.5v134h-96.5z" fill="#e8edf2"/><path d="m207 313.092h30v134h-30z" fill="#d9e7ec"/><path d="m367.753 468.089h-225c-9.941 0-18-8.059-18-18v-12c0-9.941 8.059-18 18-18h225c9.941 0 18 8.059 18 18v12c0 9.941-8.058 18-18 18z" fill="#f5f8f9"/><path d="m503 298.092v35c0 16.57-13.43 30-30 30h-435.5c-16.57 0-30-13.43-30-30v-35z" fill="#f5f8f9"/><path d="m172.75 468.092h-30c-9.94 0-18-8.06-18-18v-12c0-9.94 8.06-18 18-18h30c-9.94 0-18 8.06-18 18v12c0 9.94 8.06 18 18 18z" fill="#e8edf2"/><path d="m67.5 363.092h-30c-16.57 0-30-13.43-30-30v-35h30v35c0 16.57 13.43 30 30 30z" fill="#e8edf2"/><path d="m162.351 148.966 15.202-13.002c2.681-2.293 3.002-6.321.703-9.009l-17.259-20.18c-2.299-2.688-6.328-2.996-9.009-.703l-15.202 13.002 2.506 22.011z" fill="#685e68"/><path d="m389.975 147.698-9.146-17.791c-1.613-3.138-5.458-4.378-8.604-2.761l-23.616 12.141c-3.146 1.617-4.374 5.466-2.761 8.604l9.146 17.791 22.613 5.154z" fill="#685e68"/><g fill="#fe646f"><path d="m85.812 188.55c-11.995-14.025-10.35-35.118 3.675-47.113l32.384-27.697c3.301-2.823 8.266-2.436 11.089.865l33.213 38.833c2.823 3.301 2.436 8.266-.865 11.089l-32.384 27.697c-14.024 11.996-35.117 10.351-47.112-3.674z"/><path d="m410.843 231.303c-16.413 8.438-36.558 1.973-44.996-14.44l-19.483-37.898c-1.986-3.863-.464-8.605 3.399-10.591l45.446-23.363c3.863-1.986 8.605-.464 10.591 3.399l19.483 37.898c8.438 16.412 1.973 36.557-14.44 44.995z"/></g></g><g><path d="m473 34.912h-52.25c-4.143 0-7.5 3.358-7.5 7.5s3.357 7.5 7.5 7.5h52.25c12.406 0 22.5 10.093 22.5 22.5v218.176h-480.5v-14.136c0-4.142-3.357-7.5-7.5-7.5s-7.5 3.358-7.5 7.5v56.64c0 20.678 16.822 37.5 37.5 37.5h162v41.997h-56.75c-14.061 0-25.5 11.439-25.5 25.5v12c0 14.061 11.439 25.5 25.5 25.5h225c14.061 0 25.5-11.439 25.5-25.5v-12c0-14.061-11.439-25.5-25.5-25.5h-56.75v-41.997h162c20.678 0 37.5-16.822 37.5-37.5v-260.68c0-20.678-16.822-37.5-37.5-37.5zm-94.75 403.176v12c0 5.79-4.71 10.5-10.5 10.5h-225c-5.79 0-10.5-4.71-10.5-10.5v-12c0-5.79 4.71-10.5 10.5-10.5h225c5.79 0 10.5 4.711 10.5 10.5zm-82.25-25.5h-81.5v-41.997h81.5zm177-56.996h-435.5c-12.406 0-22.5-10.093-22.5-22.5v-27.503h480.5v27.503c0 12.406-10.094 22.5-22.5 22.5z"/><path d="m7.5 248.952c4.143 0 7.5-3.358 7.5-7.5v-169.04c0-12.407 10.094-22.5 22.5-22.5h348.25c4.143 0 7.5-3.358 7.5-7.5s-3.357-7.5-7.5-7.5h-348.25c-20.678 0-37.5 16.822-37.5 37.5v169.04c0 4.142 3.357 7.5 7.5 7.5z"/><path d="m184.142 191.171c8.787 0 16.919-3.5 23.824-10.514 2.906-2.952 2.87-7.7-.082-10.606-2.949-2.906-7.699-2.871-10.605.082-6.972 7.08-15.631 7.879-25.816 2.423l.687-.588c6.023-5.152 7.073-13.99 2.674-20.379l9.571-8.186c5.819-4.978 6.505-13.762 1.527-19.583l-17.259-20.18c-2.415-2.823-5.782-4.536-9.482-4.822-3.69-.286-7.284.884-10.102 3.294l-9.572 8.186c-2.546-2.418-5.815-3.883-9.364-4.159-4.083-.317-8.063.974-11.182 3.642l-.637.545c-3.737-10.833-1.598-19.218 6.439-24.979 3.366-2.413 4.139-7.099 1.726-10.465-2.415-3.367-7.102-4.137-10.466-1.725-15.1 10.826-18.5 27.906-9.718 47.449l-4.908 4.198-19.327-22.599c-2.693-3.147-7.427-3.519-10.575-.825-3.147 2.692-3.517 7.427-.825 10.574l19.328 22.599-3.419 2.925c-.877.75-1.705 1.537-2.503 2.344-17.993-11.799-35.447-11.118-48.516 2.153-2.906 2.951-2.87 7.7.081 10.606s7.699 2.87 10.606-.082c7.78-7.9 17.663-7.982 29.424-.27-6.035 13.908-4.092 30.661 6.407 42.936 7.104 8.306 17.016 13.348 27.912 14.198 1.086.084 2.169.126 3.247.126 3.51 0 6.963-.453 10.297-1.322 5.839 12.854 4.26 22.643-4.771 29.118-3.366 2.413-4.139 7.099-1.726 10.465 1.465 2.043 3.767 3.13 6.102 3.13 1.514 0 3.041-.457 4.364-1.405 15.169-10.875 18.529-28.063 9.594-47.716.912-.659 1.804-1.355 2.668-2.094l3.42-2.925 19.327 22.597c1.483 1.734 3.586 2.625 5.703 2.625 1.724 0 3.458-.592 4.871-1.8 3.147-2.692 3.517-7.427.824-10.575l-19.326-22.596 4.879-4.173c8.481 5.557 16.84 8.353 24.679 8.353zm-26.157-76.937 15.815 18.492-8.661 7.407-15.816-18.492zm-29.273 6.946c.031-.027.103-.088.231-.088.011 0 .022 0 .034.001.15.012.219.092.249.127l11.731 13.716-51.511 44.056c-4.467-10.184-1.996-22.523 6.881-30.116zm-17.556 73.228c-4.331-.338-8.416-1.722-11.97-4.006l51.522-44.065 11.733 13.718c.131.153.112.384-.041.515l-32.384 27.697c-5.261 4.498-11.963 6.681-18.86 6.141z"/><path d="m387.405 127.746c-1.695-3.3-4.573-5.742-8.103-6.876-3.53-1.135-7.297-.827-10.601.872l-23.617 12.142c-3.303 1.698-5.746 4.58-6.878 8.114-1.131 3.53-.819 7.291.877 10.589l5.758 11.2c-2.94 1.92-5.12 4.763-6.208 8.153-1.254 3.908-.911 8.07.966 11.72l.384.747c-11.401 1.138-19.069-2.877-22.822-12.026-1.572-3.833-5.955-5.664-9.785-4.092-3.832 1.572-5.664 5.954-4.092 9.786 5.777 14.083 17.446 21.497 33.045 21.497 3.443 0 7.081-.369 10.885-1.1l2.953 5.744-26.445 13.596c-3.685 1.894-5.136 6.415-3.241 10.099 1.33 2.587 3.955 4.072 6.676 4.072 1.154 0 2.326-.267 3.423-.831l26.446-13.596 2.058 4.003c.526 1.023 1.099 2.012 1.701 2.977-15.627 14.785-18.99 31.926-9.09 47.703 1.424 2.27 3.864 3.515 6.359 3.515 1.362 0 2.741-.371 3.979-1.148 3.509-2.202 4.568-6.831 2.366-10.339-5.891-9.388-3.695-19.019 6.507-28.679 3.599 2.696 7.655 4.808 12.062 6.222 4.119 1.322 8.343 1.977 12.548 1.977 6.418 0 12.789-1.528 18.661-4.547 9.72-4.997 16.912-13.479 20.252-23.886 1.417-4.415 2.06-8.952 1.959-13.455 13.851-2.718 23.017 1.076 27.235 11.357 1.189 2.901 3.989 4.655 6.941 4.655.948 0 1.912-.181 2.844-.563 3.832-1.572 5.664-5.954 4.092-9.786-7.085-17.27-23.037-24.5-44.224-20.338-.431-1.039-.896-2.068-1.417-3.08l-2.058-4.002 26.444-13.595c3.685-1.894 5.136-6.416 3.241-10.1-1.894-3.685-6.416-5.133-10.099-3.241l-26.445 13.595-2.935-5.708c15.619-14.784 18.979-31.921 9.081-47.695-2.201-3.509-6.832-4.567-10.339-2.366-3.509 2.202-4.568 6.831-2.366 10.339 5.281 8.415 4.062 17.027-3.595 25.68l-.413-.804c-3.625-7.049-11.984-10.106-19.213-7.301zm-12.833 7.845 5.21 10.135-21.641 11.125-5.21-10.135zm12.981 91.935c-6.591-2.115-11.964-6.67-15.129-12.827l-19.483-37.898c-.021-.04-.069-.134-.022-.278.046-.144.14-.192.18-.212l16.053-8.253 30.997 60.294c-4.156.767-8.461.501-12.596-.826zm11.157-74.62c.133 0 .262.072.326.198l19.483 37.898c3.165 6.156 3.742 13.176 1.627 19.768-1.327 4.136-3.617 7.792-6.658 10.724l-30.997-60.294 16.053-8.253c.054-.028.11-.041.166-.041z"/></g></g></svg>