<?xml version="1.0" encoding="UTF-8" standalone="no"?>
<svg
   xmlns:dc="http://purl.org/dc/elements/1.1/"
   xmlns:cc="http://creativecommons.org/ns#"
   xmlns:rdf="http://www.w3.org/1999/02/22-rdf-syntax-ns#"
   xmlns:svg="http://www.w3.org/2000/svg"
   xmlns="http://www.w3.org/2000/svg"
   xmlns:sodipodi="http://sodipodi.sourceforge.net/DTD/sodipodi-0.dtd"
   xmlns:inkscape="http://www.inkscape.org/namespaces/inkscape"
   id="svg8"
   version="1.1"
   viewBox="0 0 122.87401 93.646049"
   height="93.646049mm"
   width="122.87401mm"
   sodipodi:docname="LOGO cx_HR_Con_textoRET.svg"
   inkscape:version="0.92.3 (2405546, 2018-03-11)">
  <sodipodi:namedview
     pagecolor="#ffffff"
     bordercolor="#666666"
     borderopacity="1"
     objecttolerance="10"
     gridtolerance="10"
     guidetolerance="10"
     inkscape:pageopacity="0"
     inkscape:pageshadow="2"
     inkscape:window-width="1366"
     inkscape:window-height="684"
     id="namedview32"
     showgrid="false"
     inkscape:zoom="1.3289991"
     inkscape:cx="223.92594"
     inkscape:cy="72.213921"
     inkscape:window-x="-8"
     inkscape:window-y="-8"
     inkscape:window-maximized="1"
     inkscape:current-layer="svg8" />
  <defs
     id="defs2" />
  <metadata
     id="metadata5">
    <rdf:RDF>
      <cc:Work
         rdf:about="">
        <dc:format>image/svg+xml</dc:format>
        <dc:type
           rdf:resource="http://purl.org/dc/dcmitype/StillImage" />
        <dc:title></dc:title>
      </cc:Work>
    </rdf:RDF>
  </metadata>
  <g
     transform="translate(-30.924727,-51.709505)"
     style="display:inline"
     id="g1026">
    <g
       style="display:inline"
       id="layer12">
      <path
         id="path1024"
         transform="scale(0.26458333)"
         d="m 447.3418,360.39648 -83.38477,84.63282 -0.004,0.004 c -19.85933,19.88362 -44.83306,33.48699 -71.83007,39.55078 l 289.1636,-0.01 z"
         style="display:inline;fill:#000000;fill-opacity:0.99473685;stroke:none;stroke-width:41.6487236;stroke-miterlimit:4;stroke-dasharray:none;stroke-opacity:1;paint-order:normal" />
    </g>
    <g
       style="display:inline"
       id="layer13">
      <path
         transform="scale(0.26458333)"
         id="path1030"
         d="M 570.54297,196.83594 H 288.58984 c 28.34952,5.64332 54.63996,19.56494 75.36328,40.31445 l 0.0996,0.0977 81.65551,86.29352 z"
         style="display:inline;fill:#000000;fill-opacity:1;stroke:none;stroke-width:41.6487236;stroke-miterlimit:4;stroke-dasharray:none;stroke-opacity:1;paint-order:normal" />
    </g>
    <g
       style="display:inline"
       id="layer14">
      <path
         id="path1782"
         transform="scale(0.26458333)"
         d="m 259.98828,221.03516 c -66.46022,0.006 -120.04535,53.59488 -120.04492,120.05664 5.4e-4,66.46501 53.59164,120.05514 120.05664,120.05468 31.82718,-0.0308 62.32672,-12.69015 84.82031,-35.20703 0,0 65.09316,-66.06735 81.9043,-83.13476 L 344.79492,256.2207 c -22.49371,-22.50493 -52.98653,-35.15758 -84.80664,-35.18554 z m 0.63086,43.86523 a 78.791898,78.791898 0 0 1 78.79297,78.79102 78.791898,78.791898 0 0 1 -78.79297,78.79297 78.791898,78.791898 0 0 1 -78.79102,-78.79297 78.791898,78.791898 0 0 1 78.79102,-78.79102 z"
         style="display:inline;fill:#000000;fill-opacity:1;stroke:none;stroke-width:41.6487236;stroke-miterlimit:4;stroke-dasharray:none;stroke-opacity:1;paint-order:normal" />
    </g>
  </g>
  <g
     transform="translate(-30.924727,-51.709505)"
     style="display:inline"
     id="g1901">
    <path
       id="path1899"
       transform="scale(0.26458333)"
       d="M 580.29102,195.4375 347.63086,428.74023 C 324.39351,452.00383 292.88108,465.08454 260,465.11523 191.39026,465.11569 135.97517,409.70155 135.97461,341.0918 135.97416,272.48134 191.38954,217.06596 260,217.06641 V 197.97266 C 181.0702,197.97213 116.88035,262.16199 116.88086,341.0918 116.8815,420.02079 181.07102,484.20951 260,484.20898 h 0.004 0.004 c 37.9408,-0.034 74.32683,-15.13592 101.13867,-41.98046 l 0.002,-0.002 219.14258,-219.75 z m -117.33399,148.82227 -12.98242,14.00195 129.98242,120.50195 0.33399,-0.35937 v -25.36914 z"
       style="color:#000000;font-style:normal;font-variant:normal;font-weight:normal;font-stretch:normal;font-size:medium;line-height:normal;font-family:sans-serif;font-variant-ligatures:normal;font-variant-position:normal;font-variant-caps:normal;font-variant-numeric:normal;font-variant-alternates:normal;font-feature-settings:normal;text-indent:0;text-align:start;text-decoration:none;text-decoration-line:none;text-decoration-style:solid;text-decoration-color:#000000;letter-spacing:normal;word-spacing:normal;text-transform:none;writing-mode:lr-tb;direction:ltr;text-orientation:mixed;dominant-baseline:auto;baseline-shift:baseline;text-anchor:start;white-space:normal;shape-padding:0;clip-rule:nonzero;display:inline;overflow:visible;visibility:visible;opacity:1;isolation:auto;mix-blend-mode:normal;color-interpolation:sRGB;color-interpolation-filters:linearRGB;solid-color:#000000;solid-opacity:1;vector-effect:none;fill:#e19e39;fill-opacity:1;fill-rule:nonzero;stroke:none;stroke-width:19.09417343;stroke-linecap:butt;stroke-linejoin:miter;stroke-miterlimit:4;stroke-dasharray:none;stroke-dashoffset:0;stroke-opacity:1;paint-order:normal;color-rendering:auto;image-rendering:auto;shape-rendering:auto;text-rendering:auto;enable-background:accumulate" />
  </g>
  <g
     transform="translate(-38.604536,-52.904013)"
     style="display:inline"
     id="layer17">
    <path
       style="font-style:normal;font-variant:normal;font-weight:500;font-stretch:normal;font-size:39.99971771px;line-height:125%;font-family:'AvantGarde LT Medium';-inkscape-font-specification:'AvantGarde LT Medium, Medium';font-variant-ligatures:normal;font-variant-caps:normal;font-variant-numeric:normal;font-feature-settings:normal;text-align:start;letter-spacing:0px;word-spacing:0px;writing-mode:lr-tb;text-anchor:start;display:inline;fill:#e19e39;fill-opacity:1;stroke:none;stroke-width:1px;stroke-linecap:butt;stroke-linejoin:miter;stroke-opacity:1"
       id="path2076"
       d="m 302.35865,517.7769 h 7.71181 c 9.742,9.9798 19.73275,19.6711 29.53202,29.59979 h -7.59225 c -9.73589,-10.0279 -19.80394,-19.67587 -29.65158,-29.59979 z"
       transform="matrix(0.44342526,0,0,0.44342526,-17.882257,-97.613406)"
       inkscape:connector-curvature="0" />
  </g>
  <text
     xml:space="preserve"
     style="font-style:normal;font-variant:normal;font-weight:normal;font-stretch:normal;font-size:17.26076698px;line-height:1.25;font-family:'AvantGarde LT Medium';-inkscape-font-specification:'AvantGarde LT Medium, ';letter-spacing:0px;word-spacing:0px;fill:#000000;fill-opacity:1;stroke:none;stroke-width:0.43151915"
     x="0.94653833"
     y="91.826057"
     id="text43"
     transform="scale(0.99639714,1.0036159)"><tspan
       sodipodi:role="line"
       id="tspan41"
       x="0.94653833"
       y="91.826057"
       style="stroke-width:0.43151915">CORPORI</tspan></text>
  <g
     transform="matrix(-1,0,0,1,210.85137,-52.861936)"
     style="display:inline;fill:#000000"
     id="layer17-8">
    <path
       style="font-style:normal;font-variant:normal;font-weight:500;font-stretch:normal;font-size:39.99971771px;line-height:125%;font-family:'AvantGarde LT Medium';-inkscape-font-specification:'AvantGarde LT Medium, Medium';font-variant-ligatures:normal;font-variant-caps:normal;font-variant-numeric:normal;font-feature-settings:normal;text-align:start;letter-spacing:0px;word-spacing:0px;writing-mode:lr-tb;text-anchor:start;display:inline;fill:#000000;fill-opacity:1;stroke:none;stroke-width:1px;stroke-linecap:butt;stroke-linejoin:miter;stroke-opacity:1"
       id="path2076-1"
       d="m 302.35865,517.7769 h 7.71181 c 9.742,9.9798 19.73275,19.6711 29.53202,29.59979 h -7.59225 c -9.73589,-10.0279 -19.80394,-19.67587 -29.65158,-29.59979 z"
       transform="matrix(0.44342526,0,0,0.44342526,-17.882257,-97.613406)"
       inkscape:connector-curvature="0" />
  </g>
  <text
     xml:space="preserve"
     style="font-style:normal;font-variant:normal;font-weight:normal;font-stretch:normal;font-size:18.05907631px;line-height:1.25;font-family:'AvantGarde LT Medium';-inkscape-font-specification:'AvantGarde LT Medium, ';letter-spacing:0px;word-spacing:0px;fill:#000000;fill-opacity:1;stroke:none;stroke-width:0.45147687"
     x="98.032799"
     y="92.029106"
     id="text65"
     transform="scale(0.99684321,1.0031668)"><tspan
       sodipodi:role="line"
       id="tspan63"
       x="98.032799"
       y="92.029106"
       style="stroke-width:0.45147687">HR</tspan></text>
</svg>
