<?xml version="1.0" ?><!DOCTYPE svg  PUBLIC '-//W3C//DTD SVG 1.1//EN'  'http://www.w3.org/Graphics/SVG/1.1/DTD/svg11.dtd'><svg height="100%" style="fill-rule:evenodd;clip-rule:evenodd;stroke-linejoin:round;stroke-miterlimit:2;" version="1.1" viewBox="0 0 32 32" width="100%" xml:space="preserve" xmlns="http://www.w3.org/2000/svg" xmlns:serif="http://www.serif.com/" xmlns:xlink="http://www.w3.org/1999/xlink"><g transform="matrix(1,0,0,1,-100,-150)"><g id="Icon" transform="matrix(0.5,0,0,0.5,0,0)"><g transform="matrix(2.75636,0,0,2.75636,50.0799,-116.454)"><path d="M66,154.802C64.787,154.802 63.802,155.787 63.802,157C63.802,158.213 64.787,159.198 66,159.198C67.213,159.198 68.198,158.213 68.198,157C68.198,155.787 67.213,154.802 66,154.802ZM66,155.198C66.995,155.198 67.802,156.005 67.802,157C67.802,157.995 66.995,158.802 66,158.802C65.005,158.802 64.198,157.995 64.198,157C64.198,156.005 65.005,155.198 66,155.198Z"/></g><g transform="matrix(1.14743,0,0,1.14743,156.269,136.148)"><path d="M66,154.525C64.634,154.525 63.525,155.634 63.525,157C63.525,158.366 64.634,159.475 66,159.475C67.366,159.475 68.475,158.366 68.475,157C68.475,155.634 67.366,154.525 66,154.525ZM66,155.475C66.841,155.475 67.525,156.159 67.525,157C67.525,157.841 66.841,158.525 66,158.525C65.159,158.525 64.475,157.841 64.475,157C64.475,156.159 65.159,155.475 66,155.475Z"/></g><g transform="matrix(2.75636,0,0,2.75636,63.8617,-115.076)"><path d="M58.579,158.61C57.766,158.255 57.198,157.443 57.198,156.5C57.198,155.557 57.766,154.745 58.579,154.39C58.679,154.346 58.725,154.229 58.681,154.129C58.638,154.029 58.521,153.983 58.421,154.027C57.468,154.444 56.802,155.395 56.802,156.5C56.802,157.605 57.468,158.556 58.421,158.973C58.521,159.017 58.638,158.971 58.681,158.871C58.725,158.771 58.679,158.654 58.579,158.61Z"/></g><g transform="matrix(-2.75636,0,0,2.75636,400.138,-114.747)"><path d="M58.421,158.973C57.468,158.556 56.802,157.605 56.802,156.5C56.802,155.395 57.468,154.444 58.421,154.027C58.521,153.983 58.638,154.029 58.681,154.129C58.725,154.229 58.679,154.346 58.579,154.39C57.766,154.745 57.198,155.557 57.198,156.5C57.198,157.443 57.766,158.255 58.579,158.61C58.679,158.654 58.725,158.771 58.681,158.871C58.638,158.971 58.521,159.017 58.421,158.973Z"/></g><g transform="matrix(4.01843,0,0,4.01843,-13.1449,-312.59)"><path d="M58.554,158.667C57.72,158.302 57.136,157.469 57.136,156.5C57.136,155.531 57.72,154.698 58.554,154.333C58.623,154.303 58.654,154.223 58.624,154.154C58.594,154.085 58.514,154.054 58.446,154.084C57.515,154.491 56.864,155.42 56.864,156.5C56.864,157.58 57.515,158.509 58.446,158.916C58.514,158.946 58.594,158.915 58.624,158.846C58.654,158.777 58.623,158.697 58.554,158.667Z"/></g><g transform="matrix(-4.01843,0,0,4.01843,477.145,-312.261)"><path d="M58.446,158.916C57.515,158.509 56.864,157.58 56.864,156.5C56.864,155.42 57.515,154.491 58.446,154.084C58.514,154.054 58.594,154.085 58.624,154.154C58.654,154.223 58.623,154.303 58.554,154.333C57.72,154.698 57.136,155.531 57.136,156.5C57.136,157.469 57.72,158.302 58.554,158.667C58.623,158.697 58.654,158.777 58.624,158.846C58.594,158.915 58.514,158.946 58.446,158.916Z"/></g><g transform="matrix(5.22121,0,0,5.22121,-86.4823,-500.824)"><path d="M58.542,158.696C57.696,158.326 57.104,157.482 57.104,156.5C57.104,155.518 57.696,154.674 58.542,154.304C58.595,154.281 58.619,154.219 58.596,154.166C58.573,154.114 58.511,154.09 58.458,154.113C57.539,154.515 56.896,155.433 56.896,156.5C56.896,157.567 57.539,158.485 58.458,158.887C58.511,158.91 58.573,158.886 58.596,158.834C58.619,158.781 58.595,158.719 58.542,158.696Z"/></g><g transform="matrix(-5.22121,0,0,5.22121,550.482,-500.495)"><path d="M58.458,158.887C57.539,158.485 56.896,157.567 56.896,156.5C56.896,155.433 57.539,154.515 58.458,154.113C58.511,154.09 58.573,154.114 58.596,154.166C58.619,154.219 58.595,154.281 58.542,154.304C57.696,154.674 57.104,155.518 57.104,156.5C57.104,157.482 57.696,158.326 58.542,158.696C58.595,158.719 58.619,158.781 58.596,158.834C58.573,158.886 58.511,158.91 58.458,158.887Z"/></g><g transform="matrix(2,0,0,2,0,0)"><path d="M120.536,173.841L119.632,173.841C119.481,173.841 119.359,173.719 119.359,173.569L119.359,171.424C119.359,171.273 119.481,171.151 119.632,171.151L130,171.151C130.151,171.151 130.273,171.273 130.273,171.424L130.273,173.569C130.273,173.719 130.151,173.841 130,173.841L128.996,173.841L128.996,174.369L130,174.369C130.151,174.369 130.273,174.491 130.273,174.641L130.273,176.787C130.273,176.937 130.151,177.059 130,177.059L128.996,177.059L128.996,177.582L130,177.582C130.151,177.582 130.273,177.704 130.273,177.855L130.273,180C130.273,180.151 130.151,180.273 130,180.273L119.632,180.273C119.481,180.273 119.359,180.151 119.359,180L119.359,177.855C119.359,177.704 119.481,177.582 119.632,177.582L120.536,177.582L120.536,177.059L119.632,177.059C119.481,177.059 119.359,176.937 119.359,176.787L119.359,174.641C119.359,174.491 119.481,174.369 119.632,174.369L120.536,174.369L120.536,173.841ZM128.772,178.128C128.756,178.13 128.74,178.132 128.724,178.132L120.808,178.132C120.792,178.132 120.776,178.13 120.76,178.128L119.905,178.128L119.905,179.727L129.727,179.727L129.727,178.128L128.772,178.128ZM121.081,177.059L121.081,177.582L128.451,177.582L128.451,177.059L121.081,177.059ZM119.905,176.514L129.727,176.514L129.727,174.914L119.905,174.914L119.905,176.514ZM128.451,174.369L128.451,173.841L121.081,173.841L121.081,174.369L128.451,174.369ZM119.905,171.696L119.905,173.296L129.727,173.296L129.727,171.696L119.905,171.696Z"/></g><g transform="matrix(2,0,0,2,0,0)"><path d="M102.904,173.856L102,173.856C101.849,173.856 101.727,173.734 101.727,173.583L101.727,171.438C101.727,171.288 101.849,171.165 102,171.165L112.368,171.165C112.519,171.165 112.641,171.288 112.641,171.438L112.641,173.583C112.641,173.734 112.519,173.856 112.368,173.856L111.364,173.856L111.364,174.383L112.368,174.383C112.519,174.383 112.641,174.505 112.641,174.656L112.641,176.801C112.641,176.952 112.519,177.074 112.368,177.074L111.364,177.074L111.364,177.597L112.368,177.597C112.519,177.597 112.641,177.719 112.641,177.869L112.641,180.015C112.641,180.165 112.519,180.287 112.368,180.287L102,180.287C101.849,180.287 101.727,180.165 101.727,180.015L101.727,177.869C101.727,177.719 101.849,177.597 102,177.597L102.904,177.597L102.904,177.074L102,177.074C101.849,177.074 101.727,176.952 101.727,176.801L101.727,174.656C101.727,174.505 101.849,174.383 102,174.383L102.904,174.383L102.904,173.856ZM111.14,178.142C111.124,178.145 111.108,178.146 111.092,178.146L103.176,178.146C103.16,178.146 103.144,178.145 103.128,178.142L102.273,178.142L102.273,179.742L112.095,179.742L112.095,178.142L111.14,178.142ZM103.449,177.074L103.449,177.597L110.819,177.597L110.819,177.074L103.449,177.074ZM112.095,174.929L102.273,174.929L102.273,176.528L112.095,176.528L112.095,174.929ZM103.449,173.856L103.449,174.383L110.819,174.383L110.819,173.856L103.449,173.856ZM102.273,173.311L112.095,173.311L112.095,171.711L102.273,171.711L102.273,173.311Z"/></g><g transform="matrix(2.10095,-1.21298,1.21298,2.10095,-209.732,117.01)"><path d="M115.775,166L115.775,167L116.225,167L116.225,166L115.775,166Z"/></g><g transform="matrix(-2.10095,-1.21298,-1.21298,2.10095,673.994,117.01)"><path d="M116.225,166L116.225,167L115.775,167L115.775,166L116.225,166Z"/></g><g transform="matrix(2.10095,-1.21298,1.21298,2.10095,-204.896,125.386)"><path d="M115.775,166L115.775,167L116.225,167L116.225,166L115.775,166Z"/></g><g transform="matrix(-2.10095,-1.21298,-1.21298,2.10095,669.158,125.386)"><path d="M116.225,166L116.225,167L115.775,167L115.775,166L116.225,166Z"/></g><g transform="matrix(2.10095,-1.21298,1.21298,2.10095,-207.306,121.211)"><path d="M115.775,166L115.775,167L116.225,167L116.225,166L115.775,166Z"/></g><g transform="matrix(-2.10095,-1.21298,-1.21298,2.10095,671.568,121.211)"><path d="M116.225,166L116.225,167L115.775,167L115.775,166L116.225,166Z"/></g><g transform="matrix(2.10095,-1.21298,1.21298,2.10095,-202.558,129.435)"><path d="M115.775,166L115.775,167L116.225,167L116.225,166L115.775,166Z"/></g><g transform="matrix(-2.10095,-1.21298,-1.21298,2.10095,666.821,129.435)"><path d="M116.225,166L116.225,167L115.775,167L115.775,166L116.225,166Z"/></g><g transform="matrix(1.36986,0,0,2,86.2832,0.992279)"><path d="M113,172.273L114,172.273L114,171.727L113,171.727L113,172.273Z"/></g><g transform="matrix(1.36986,0,0,2,51.0192,1.02149)"><path d="M113,172.273L114,172.273L114,171.727L113,171.727L113,172.273Z"/></g><g transform="matrix(1.36986,0,0,2,86.2832,7.45275)"><path d="M113,172.273L114,172.273L114,171.727L113,171.727L113,172.273Z"/></g><g transform="matrix(1.36986,0,0,2,51.0192,7.48196)"><path d="M113,172.273L114,172.273L114,171.727L113,171.727L113,172.273Z"/></g><g transform="matrix(1.36986,0,0,2,86.2832,13.8883)"><path d="M113,172.273L114,172.273L114,171.727L113,171.727L113,172.273Z"/></g><g transform="matrix(1.36986,0,0,2,51.0192,13.9175)"><path d="M113,172.273L114,172.273L114,171.727L113,171.727L113,172.273Z"/></g><g transform="matrix(1.36986,0,0,2,88.3753,0.992279)"><path d="M113,172.273L114,172.273L114,171.727L113,171.727L113,172.273Z"/></g><g transform="matrix(1.36986,0,0,2,53.1113,1.02149)"><path d="M113,172.273L114,172.273L114,171.727L113,171.727L113,172.273Z"/></g><g transform="matrix(1.36986,0,0,2,88.3753,7.45275)"><path d="M113,172.273L114,172.273L114,171.727L113,171.727L113,172.273Z"/></g><g transform="matrix(1.36986,0,0,2,53.1113,7.48196)"><path d="M113,172.273L114,172.273L114,171.727L113,171.727L113,172.273Z"/></g><g transform="matrix(1.36986,0,0,2,88.3753,13.8883)"><path d="M113,172.273L114,172.273L114,171.727L113,171.727L113,172.273Z"/></g><g transform="matrix(1.36986,0,0,2,53.1113,13.9175)"><path d="M113,172.273L114,172.273L114,171.727L113,171.727L113,172.273Z"/></g><g transform="matrix(1.36986,0,0,2,90.4674,0.992279)"><path d="M113,172.273L114,172.273L114,171.727L113,171.727L113,172.273Z"/></g><g transform="matrix(1.36986,0,0,2,55.2034,1.02149)"><path d="M113,172.273L114,172.273L114,171.727L113,171.727L113,172.273Z"/></g><g transform="matrix(1.36986,0,0,2,90.4674,7.45275)"><path d="M113,172.273L114,172.273L114,171.727L113,171.727L113,172.273Z"/></g><g transform="matrix(1.36986,0,0,2,55.2034,7.48196)"><path d="M113,172.273L114,172.273L114,171.727L113,171.727L113,172.273Z"/></g><g transform="matrix(1.36986,0,0,2,90.4674,13.8883)"><path d="M113,172.273L114,172.273L114,171.727L113,171.727L113,172.273Z"/></g><g transform="matrix(1.36986,0,0,2,55.2034,13.9175)"><path d="M113,172.273L114,172.273L114,171.727L113,171.727L113,172.273Z"/></g></g></g></svg>