<?xml version="1.0" encoding="utf-8"?>
<!-- Generator: Adobe Illustrator 22.1.0, SVG Export Plug-In . SVG Version: 6.00 Build 0)  -->
<svg version="1.1"
	 id="svg8" inkscape:version="0.92.3 (2405546, 2018-03-11)" sodipodi:docname="LOGO cx_HR_Con_textoRET.svg" xmlns:cc="http://creativecommons.org/ns#" xmlns:dc="http://purl.org/dc/elements/1.1/" xmlns:inkscape="http://www.inkscape.org/namespaces/inkscape" xmlns:rdf="http://www.w3.org/1999/02/22-rdf-syntax-ns#" xmlns:sodipodi="http://sodipodi.sourceforge.net/DTD/sodipodi-0.dtd" xmlns:svg="http://www.w3.org/2000/svg"
	 xmlns="http://www.w3.org/2000/svg" xmlns:xlink="http://www.w3.org/1999/xlink" x="0px" y="0px" viewBox="0 0 309.7 37.1"
	 style="enable-background:new 0 0 309.7 37.1;" xml:space="preserve">
<style type="text/css">
	.st0{fill:#E19E39;}
	.st1{stroke:#F5F5D5;stroke-miterlimit:10;}
	.st2{font-family:'AvantGardeITCbyBT-Medium';}
	.st3{font-size:42.7038px;}
	.st4{stroke:#ECB86B;stroke-miterlimit:10;}
	.st5{stroke:#FFF6C9;stroke-miterlimit:10;}
	.st6{font-size:44.5563px;}
	.st7{fill:none;}
	.st8{font-size:12px;}
</style>
<sodipodi:namedview  bordercolor="#666666" borderopacity="1" gridtolerance="10" guidetolerance="10" id="namedview32" inkscape:current-layer="svg8" inkscape:cx="223.92594" inkscape:cy="72.213921" inkscape:pageopacity="0" inkscape:pageshadow="2" inkscape:window-height="684" inkscape:window-maximized="1" inkscape:window-width="1366" inkscape:window-x="-8" inkscape:window-y="-8" inkscape:zoom="1.3289991" objecttolerance="10" pagecolor="#ffffff" showgrid="false">
	</sodipodi:namedview>
<g id="layer17" transform="translate(-38.604536,-52.904013)">
	<path id="path2076" inkscape:connector-curvature="0" class="st0" d="M237.5,57.9h8.2c10.4,10.1,21,19.9,31.4,29.9H269
		C258.7,77.6,248,67.9,237.5,57.9z"/>
</g>
<text transform="matrix(1.0788 0 0 1 2.6719 34.9801)" class="st1 st2 st3">CORPORI</text>
<g id="layer17-8" transform="matrix(-1,0,0,1,210.85137,-52.861936)">
	<path id="path2076-1" inkscape:connector-curvature="0" class="st4" d="M-25.4,57.8h7.7c9.8,10.1,19.8,20,29.6,30H4.3
		C-5.5,77.7-15.6,67.9-25.4,57.8z"/>
</g>
<text transform="matrix(1.0574 0 0 1 247.3337 35.569)" class="st5 st2 st6">HR</text>
<rect x="218" y="6" class="st7" width="42" height="27"/>
<text transform="matrix(1 0 0 1 218 14.5319)" class="st2 st8"> </text>
</svg>
